<svg width="24" height="24" viewBox="0 0 24 24" fill="none" xmlns="http://www.w3.org/2000/svg">
<path fill-rule="evenodd" clip-rule="evenodd" d="M22 8.5C22 7.39 21.11 6.5 20 6.5H16V4.5C16 3.39 15.11 2.5 14 2.5H9.99997C8.88997 2.5 7.99997 3.39 7.99997 4.5V6.5H3.99997C2.88997 6.5 2.00997 7.39 2.00997 8.5L1.99997 19.5C1.99997 20.61 2.88997 21.5 3.99997 21.5H20C21.11 21.5 22 20.61 22 19.5V8.5ZM13.9999 6.50001V4.50001H9.99995V6.50001H13.9999ZM3.99995 8.5V19.5H20V8.5H3.99995Z" fill="#42526E"/>
</svg>
